HIERARCHY
ROOT root
{
	OFFSET	0	13.1	24.9
	CHANNELS 6  Xposition Yposition Zposition Xrotation Yrotation Zrotation
	JOINT spine_1
	{
		OFFSET	0	9.99999	0
		CHANNELS 3  Xrotation Yrotation Zrotation
		JOINT spine_2
		{
			OFFSET	0	112	-10
			CHANNELS 3  Xrotation Yrotation Zrotation
			JOINT spine_3
			{
				OFFSET	0	206.5	19.3
				CHANNELS 3  Xrotation Yrotation Zrotation
				JOINT spine_4
				{
					OFFSET	0	110.4	14.6
					CHANNELS 3  Xrotation Yrotation Zrotation
					JOINT neck_1
					{
						OFFSET	0	71.8	-50.3
						CHANNELS 3  Xrotation Yrotation Zrotation
						JOINT neck_2
						{
							OFFSET	0	86.2	-25.8
							CHANNELS 3  Xrotation Yrotation Zrotation
							JOINT head_ee
							{
								OFFSET	0	179.8	-8.7
								CHANNELS 3  Xrotation Yrotation Zrotation
								End Site
								{
									OFFSET	1	0	0
								}
							}
						}
					}
					JOINT left_clavicle
					{
						OFFSET	-43.2	22.4	-70.8
						CHANNELS 3  Xrotation Yrotation Zrotation
						JOINT left_shoulder
						{
							OFFSET	-93.9	-5.79999	48.7
							CHANNELS 3  Xrotation Yrotation Zrotation
							JOINT left_elbow
							{
								OFFSET	-291.4	-30.8	15.2
								CHANNELS 3  Xrotation Yrotation Zrotation
								JOINT left_lowarm_twist
								{
									OFFSET	-110.7	-3.89999	13.6
									CHANNELS 3  Xrotation Yrotation Zrotation
									JOINT left_hand
									{
										OFFSET	-110.7	-3.89999	13.6
										CHANNELS 3  Xrotation Yrotation Zrotation
										JOINT left_ee
										{
											OFFSET	-80.8	-5.10001	12.1
											CHANNELS 3  Xrotation Yrotation Zrotation
											End Site
											{
												OFFSET	1	0	0
											}
										}
									}
								}
							}
						}
					}
					JOINT right_clavicle
					{
						OFFSET	43.2	22.4	-70.8
						CHANNELS 3  Xrotation Yrotation Zrotation
						JOINT right_shoulder
						{
							OFFSET	93.9	-5.79999	48.7
							CHANNELS 3  Xrotation Yrotation Zrotation
							JOINT right_elbow
							{
								OFFSET	291.4	-30.8	15.2
								CHANNELS 3  Xrotation Yrotation Zrotation
								JOINT right_lowarm_twist
								{
									OFFSET	110.7	-3.89999	13.6
									CHANNELS 3  Xrotation Yrotation Zrotation
									JOINT right_hand
									{
										OFFSET	110.7	-3.89999	13.6
										CHANNELS 3  Xrotation Yrotation Zrotation
										JOINT right_ee
										{
											OFFSET	80.8	-5.10001	12.1
											CHANNELS 3  Xrotation Yrotation Zrotation
											End Site
											{
												OFFSET	1	0	0
											}
										}
									}
								}
							}
						}
					}
				}
			}
		}
	}
	JOINT left_hip
	{
		OFFSET	-82.8	-127.5	0.300001
		CHANNELS 3  Xrotation Yrotation Zrotation
		JOINT left_knee
		{
			OFFSET	-28.2	-396.7	2.2
			CHANNELS 3  Xrotation Yrotation Zrotation
			JOINT left_ankle
			{
				OFFSET	-11.7	-411.3	35.4
				CHANNELS 3  Xrotation Yrotation Zrotation
				JOINT left_toes
				{
					OFFSET	0	-60	-88.6
					CHANNELS 3  Xrotation Yrotation Zrotation
					JOINT left_foot_ee
					{
						OFFSET	-22.5	-16.5	-42.2
						CHANNELS 3  Xrotation Yrotation Zrotation
						End Site
						{
							OFFSET	1	0	0
						}
					}
				}
			}
		}
	}
	JOINT right_hip
	{
		OFFSET	82.8	-127.5	0.300001
		CHANNELS 3  Xrotation Yrotation Zrotation
		JOINT right_knee
		{
			OFFSET	28.2	-396.7	2.2
			CHANNELS 3  Xrotation Yrotation Zrotation
			JOINT right_ankle
			{
				OFFSET	11.7	-411.3	35.4
				CHANNELS 3  Xrotation Yrotation Zrotation
				JOINT right_toes
				{
					OFFSET	0	-60	-88.6
					CHANNELS 3  Xrotation Yrotation Zrotation
					JOINT right_foot_ee
					{
						OFFSET	22.5	-16.5	-42.2
						CHANNELS 3  Xrotation Yrotation Zrotation
						End Site
						{
							OFFSET	1	0	0
						}
					}
				}
			}
		}
	}
}
MOTION
Frames: 15
Frame Time: 0.02
2800.94 716.97 -1473.77 91.685935868 83.0095021762 -86.6573813042 -2.08695 -0.74593 -3.40393 -2.08066 -0.52795 -3.44443 -2.04137 0.331627 -3.46881 -2.0581 -0.220027 -3.47766 -4.32189 3.48619 8.47663 -4.12163 -0.0885373 9.26828 -0.0 0.0 -0.0 10.4748 -10.5963 20.8692 24.082 -17.5283 57.6462 3.04629 -56.457 1.63563 -27.509 -1.73096 3.02714 -0.977834 -7.51501 -9.83833 -0.0 0.0 -0.0 2.2068 -2.03008 -4.41204 -23.0961 -1.48416 -70.7106 0.595238 16.429 -0.0859296 3.85991 -0.119916 0.478351 -0.86627 -28.6848 -6.50393 0.0 0.0 0.0 -26.7132 -3.91436 -3.99038 -0.0893595 0.00366919 0.0132222 40.3516 5.52097 -4.88836 -16.4637 0.0 0.0 -0.0 0.0 -0.0 21.053 -5.65608 -4.17035 -0.919634 -0.0367727 -0.136337 -8.14209 9.78649 -1.27622 -40.0512 0.0 0.0 0.0 0.0 0.0 
2704.90513547 724.82 -1493.37688783 125.191825636 80.4243997185 -119.742266262 -2.04916 -0.505086 -3.7616 -2.04133 -0.264878 -3.78607 -2.01556 0.669348 -3.73591 -2.03503 0.0713738 -3.79464 1.44547 1.79055 6.30516 1.568 -2.12097 7.06291 -0.0 0.0 -0.0 9.0983 -9.33361 17.8855 14.3199 -16.1253 64.4918 2.60451 -52.2129 1.27647 -30.8055 -2.03055 3.32522 -0.48482 -6.78621 -6.16254 -0.0 0.0 -0.0 1.97633 -2.66307 -4.02798 -15.7676 -1.81398 -71.3226 0.795928 21.5182 -0.151245 4.58634 -0.138864 0.569211 -0.792416 -28.8814 -6.98278 0.0 0.0 0.0 -30.3954 -8.46965 -6.38765 -6.50157 0.212572 0.974623 35.3798 3.49836 -4.43792 -11.7691 0.0 0.0 -0.0 0.0 -0.0 17.0188 -5.90058 -6.25328 -8.5361 -0.256215 -1.28377 -2.30459 9.32415 -0.356115 -39.4608 0.0 0.0 0.0 0.0 0.0 
2685.60931841 731.093 -1493.77006918 121.005394047 80.5702472634 -115.174785401 -2.07083 -0.477128 -3.76482 -2.06297 -0.236771 -3.78751 -2.03909 0.698545 -3.73014 -2.05848 0.101115 -3.79355 0.63213 2.27995 7.4335 0.797861 -2.11109 8.28771 -0.0 0.0 -0.0 8.8532 -12.0795 17.2839 12.2303 -14.6099 64.6863 2.2635 -48.2653 1.01417 -30.6377 -2.01488 3.31046 -0.378263 -6.30284 -5.23222 -0.0 0.0 -0.0 1.94196 -3.15516 -4.00363 -10.4511 -1.0809 -69.6475 0.803383 21.7011 -0.15399 4.45929 -0.135634 0.553303 -0.583655 -28.9105 -8.1257 0.0 0.0 0.0 -28.5185 -7.92021 -5.2363 -7.5169 0.235725 1.12871 31.9156 2.6949 -4.09584 -9.61286 0.0 0.0 -0.0 0.0 -0.0 15.4131 -5.62334 -6.97476 -8.64575 -0.258255 -1.30047 -0.197324 10.0006 -0.030451 -38.3008 0.0 0.0 0.0 0.0 0.0 
2668.34470279 732.858 -1494.81250476 123.908264213 79.7536566745 -118.021652178 -2.40872 -0.532165 -3.8464 -2.40054 -0.286518 -3.87241 -2.37172 0.693285 -3.82068 -2.39207 0.0816531 -3.88212 0.177993 2.42093 8.03373 0.371304 -2.30214 8.92155 -0.0 0.0 -0.0 8.82178 -14.431 17.1203 10.5121 -13.6397 65.3616 1.96101 -44.1647 0.795644 -30.6186 -2.0131 3.30878 -0.313248 -5.89549 -4.61724 -0.0 0.0 -0.0 1.99091 -3.16703 -4.09609 -6.08766 -0.668353 -68.9713 0.75663 20.5466 -0.137141 4.29711 -0.131458 0.533006 -0.433143 -28.6665 -8.85234 0.0 0.0 0.0 -27.3508 -7.7892 -5.44895 -9.91573 0.27955 1.49418 29.1 2.11635 -3.80084 -8.72116 0.0 0.0 -0.0 0.0 -0.0 13.9732 -5.10057 -6.91517 -8.99785 -0.264589 -1.35413 2.11236 10.3147 0.324523 -37.7447 0.0 0.0 0.0 0.0 0.0 
2668.73341646 732.858 -1497.13063182 119.046983197 80.2779386006 -113.085761183 -2.40872 -0.532165 -3.8464 -2.40054 -0.286518 -3.87241 -2.37172 0.693285 -3.82068 -2.39207 0.0816531 -3.88212 0.177993 2.42093 8.03373 0.371304 -2.30214 8.92155 -0.0 0.0 -0.0 8.82178 -14.431 17.1203 10.5121 -13.6397 65.3616 1.96101 -44.1647 0.795644 -30.6186 -2.0131 3.30878 -0.313248 -5.89549 -4.61724 -0.0 0.0 -0.0 1.99091 -3.16703 -4.09609 -6.08766 -0.668353 -68.9713 0.75663 20.5466 -0.137141 4.29711 -0.131458 0.533006 -0.433143 -28.6665 -8.85234 0.0 0.0 0.0 -27.3508 -7.7892 -5.44895 -9.91573 0.27955 1.49418 29.1 2.11635 -3.80084 -8.72116 0.0 0.0 -0.0 0.0 -0.0 13.9732 -5.10057 -6.91517 -8.99785 -0.264589 -1.35413 2.11236 10.3147 0.324523 -37.7447 0.0 0.0 0.0 0.0 0.0 
2653.04283939 734.278 -1494.77539694 114.708972595 80.1177311715 -108.65090219 -2.656 -0.591134 -4.05438 -2.64691 -0.332166 -4.08371 -2.61205 0.719034 -4.03369 -2.63474 0.0735212 -4.09652 0.773039 2.39324 7.90332 0.961203 -2.31874 8.8203 -0.0 0.0 -0.0 8.64303 -16.2983 16.6313 8.57216 -13.3731 66.8235 1.7024 -40.1383 0.621991 -30.4795 -2.00016 3.29651 -0.124588 -6.61316 -3.64824 -0.0 0.0 -0.0 1.84273 -2.98001 -3.80355 -2.08043 -0.00141385 -67.7065 0.736819 20.052 -0.130268 4.42911 -0.134861 0.549525 -0.287383 -28.1753 -9.46892 0.0 0.0 0.0 -25.0068 -6.85315 -4.29454 -13.0674 0.313808 1.97649 29.2954 4.45837 -3.81405 -7.30149 0.0 0.0 -0.0 0.0 -0.0 12.12 -4.75442 -7.31363 -8.90859 -0.263014 -1.34052 3.61771 9.12006 0.549585 -36.7419 0.0 0.0 0.0 0.0 0.0 
2638.16705031 739.426 -1493.70013987 119.306923935 79.4049022595 -113.294535203 -2.74613 -0.580849 -4.20251 -2.73636 -0.312501 -4.23088 -2.70114 0.782186 -4.16979 -2.72538 0.114448 -4.24085 -0.266559 2.11881 7.98079 -0.0721525 -2.7396 8.80153 -0.0 0.0 -0.0 8.79165 -17.4967 16.8865 5.26866 -12.1025 68.1894 1.48613 -36.3576 0.48803 -30.6872 -2.0195 3.31482 -0.061627 -5.63141 -2.80372 -0.0 0.0 -0.0 2.21302 -1.18362 -4.3575 4.07719 0.3656 -66.5394 0.638884 17.5619 -0.0986879 4.67248 -0.141035 0.580001 -0.333208 -28.3391 -9.2774 0.0 0.0 0.0 -23.8736 -6.76366 -3.89358 -15.8441 0.321976 2.40239 26.289 5.68752 -3.47903 -7.07952 0.0 0.0 -0.0 0.0 -0.0 11.0849 -4.41667 -7.88972 -9.47906 -0.272712 -1.42752 5.80301 9.0219 0.875015 -36.0813 0.0 0.0 0.0 0.0 0.0 
2638.39356774 739.426 -1495.47025309 116.316351159 79.695909694 -110.253560124 -2.74613 -0.580849 -4.20251 -2.73636 -0.312501 -4.23088 -2.70114 0.782186 -4.16979 -2.72538 0.114448 -4.24085 -0.266559 2.11881 7.98079 -0.0721525 -2.7396 8.80153 -0.0 0.0 -0.0 8.79165 -17.4967 16.8865 5.26866 -12.1025 68.1894 1.48613 -36.3576 0.48803 -30.6872 -2.0195 3.31482 -0.061627 -5.63141 -2.80372 -0.0 0.0 -0.0 2.21302 -1.18362 -4.3575 4.07719 0.3656 -66.5394 0.638884 17.5619 -0.0986879 4.67248 -0.141035 0.580001 -0.333208 -28.3391 -9.2774 0.0 0.0 0.0 -23.8736 -6.76366 -3.89358 -15.8441 0.321976 2.40239 26.289 5.68752 -3.47903 -7.07952 0.0 0.0 -0.0 0.0 -0.0 11.0849 -4.41667 -7.88972 -9.47906 -0.272712 -1.42752 5.80301 9.0219 0.875015 -36.0813 0.0 0.0 0.0 0.0 0.0 
2616.54167204 738.709 -1490.93593729 109.971726712 79.375935014 -103.749907337 -2.99978 -0.508193 -4.33205 -2.98937 -0.231771 -4.35555 -2.95852 0.911679 -4.26553 -2.98383 0.227246 -4.35578 -0.142039 2.81947 8.02834 0.044452 -1.54644 8.93376 -0.0 0.0 -0.0 8.37543 -18.4853 15.9049 2.51457 -9.84511 68.8947 1.27738 -32.3233 0.3702 -29.5854 -1.91766 3.21689 -0.0172272 -5.73466 -2.54799 -0.0 0.0 -0.0 2.38629 1.11794 -4.50985 8.02895 0.892329 -65.4587 0.567359 15.6983 -0.0782151 4.90659 -0.146852 0.60934 -0.271981 -27.2192 -9.20115 0.0 0.0 0.0 -21.923 -6.68225 -3.08852 -23.7685 0.231894 3.61402 26.636 7.73682 -3.51881 -6.00001 0.0 0.0 -0.0 0.0 -0.0 9.61484 -2.60048 -9.81616 -9.61411 -0.274881 -1.44813 7.28862 7.09459 1.08294 -34.6865 0.0 0.0 0.0 0.0 0.0 
2597.28542219 738.949 -1484.98970114 110.409204916 78.4130880778 -104.354887526 -3.20508 -0.403591 -4.20543 -3.19526 -0.135414 -4.22255 -3.17266 0.985556 -4.10836 -3.19606 0.324954 -4.21223 0.346351 3.25689 7.9658 0.524384 -0.783546 8.94075 -0.0 0.0 -0.0 8.25201 -18.3954 15.6398 0.597918 -8.04316 69.8715 1.1044 -28.6817 0.282356 -29.515 -1.91122 3.21057 -0.0296842 -4.47256 -2.09449 -0.0 0.0 -0.0 2.30497 3.1873 -4.18256 11.4952 1.56815 -66.6422 0.540377 14.9862 -0.0710761 5.73454 -0.16646 0.713285 -0.224645 -25.5245 -8.83712 0.0 0.0 0.0 -20.2071 -7.68626 -2.91423 -29.767 0.0529187 4.51679 23.0741 12.1187 -3.11757 -5.95148 0.0 0.0 -0.0 0.0 -0.0 8.27226 -1.02724 -10.8012 -9.95325 -0.280114 -1.49991 6.46123 4.91544 0.953554 -32.9739 0.0 0.0 0.0 0.0 0.0 
2597.53952753 738.949 -1488.91320158 105.200355721 78.7511703244 -99.0410434738 -3.20508 -0.403591 -4.20543 -3.19526 -0.135414 -4.22255 -3.17266 0.985556 -4.10836 -3.19606 0.324954 -4.21223 0.346351 3.25689 7.9658 0.524384 -0.783546 8.94075 -0.0 0.0 -0.0 8.25201 -18.3954 15.6398 0.597918 -8.04316 69.8715 1.1044 -28.6817 0.282356 -29.515 -1.91122 3.21057 -0.0296842 -4.47256 -2.09449 -0.0 0.0 -0.0 2.30497 3.1873 -4.18256 11.4952 1.56815 -66.6422 0.540377 14.9862 -0.0710761 5.73454 -0.16646 0.713285 -0.224645 -25.5245 -8.83712 0.0 0.0 0.0 -20.2071 -7.68626 -2.91423 -29.767 0.0529187 4.51679 23.0741 12.1187 -3.11757 -5.95148 0.0 0.0 -0.0 0.0 -0.0 8.27226 -1.02724 -10.8012 -9.95325 -0.280114 -1.49991 6.46123 4.91544 0.953554 -32.9739 0.0 0.0 0.0 0.0 0.0 
2572.81035192 736.996 -1486.8597781 111.77759154 77.8368211657 -105.376178975 -3.39114 -0.357611 -4.20364 -3.38131 -0.0896409 -4.21784 -3.36185 1.04209 -4.08829 -3.38497 0.383943 -4.20132 0.821932 3.62345 7.98113 0.996473 -0.213292 9.02078 -0.0 0.0 -0.0 7.56746 -16.3399 14.2786 -1.79777 -6.98988 71.7141 1.04163 -27.2927 0.252895 -31.4635 -2.09239 3.38264 -0.0650217 -3.25572 -1.81473 -0.0 0.0 -0.0 2.21527 6.33613 -3.73345 14.0125 1.76368 -67.0315 0.514187 14.2903 -0.0644574 7.733 -0.207581 0.965247 -0.0974976 -22.4922 -8.43487 0.0 0.0 0.0 -19.8011 -10.752 -3.0523 -35.0543 -0.182467 5.29365 21.7853 15.6555 -2.9837 -5.41686 0.0 0.0 -0.0 0.0 -0.0 7.18164 0.64648 -11.4357 -13.1268 -0.314198 -1.98559 10.8643 5.66923 1.58326 -28.8681 0.0 0.0 0.0 0.0 0.0 
2573.38062666 736.996 -1494.53560213 103.008419687 78.4155025233 -96.4161569596 -3.39114 -0.357611 -4.20364 -3.38131 -0.0896409 -4.21784 -3.36185 1.04209 -4.08829 -3.38497 0.383943 -4.20132 0.821932 3.62345 7.98113 0.996473 -0.213292 9.02078 -0.0 0.0 -0.0 7.56746 -16.3399 14.2786 -1.79777 -6.98988 71.7141 1.04163 -27.2927 0.252895 -31.4635 -2.09239 3.38264 -0.0650217 -3.25572 -1.81473 -0.0 0.0 -0.0 2.21527 6.33613 -3.73345 14.0125 1.76368 -67.0315 0.514187 14.2903 -0.0644574 7.733 -0.207581 0.965247 -0.0974976 -22.4922 -8.43487 0.0 0.0 0.0 -19.8011 -10.752 -3.0523 -35.0543 -0.182467 5.29365 21.7853 15.6555 -2.9837 -5.41686 0.0 0.0 -0.0 0.0 -0.0 7.18164 0.64648 -11.4357 -13.1268 -0.314198 -1.98559 10.8643 5.66923 1.58326 -28.8681 0.0 0.0 0.0 0.0 0.0 
2556.0284987 743.049 -1496.35423853 105.494223833 77.805547178 -98.6714102028 -3.68192 -0.403712 -4.03449 -3.67288 -0.146384 -4.05196 -3.64978 0.962609 -3.93887 -3.67128 0.328993 -4.04126 0.55747 3.62667 7.84485 0.725432 -0.0564617 8.8573 -0.0 0.0 -0.0 7.49162 -14.6499 14.2149 -3.60852 -6.12723 71.9916 0.945301 -25.0921 0.21037 -32.812 -2.22116 3.4981 -0.152538 -1.73201 -1.75451 -0.0 0.0 -0.0 1.96337 6.64251 -3.19533 17.3046 1.98741 -68.5405 0.537639 14.9136 -0.0703697 9.07583 -0.230264 1.13527 0.00795333 -22.0255 -8.88068 0.0 0.0 0.0 -19.4773 -11.9153 -2.96356 -36.686 -0.269504 5.52875 15.4424 18.7538 -2.19256 -6.82708 0.0 0.0 -0.0 0.0 -0.0 6.21906 1.50296 -12.5068 -14.8645 -0.321451 -2.25211 11.554 2.66652 1.66077 -27.8083 0.0 0.0 0.0 0.0 0.0 
2546.23764696 740.553 -1496.66114614 103.151861662 77.3142496472 -96.3122700108 -3.75162 -0.487728 -3.98922 -3.7428 -0.233104 -4.01213 -3.7135 0.872463 -3.92319 -3.73489 0.242442 -4.01157 0.397403 3.97853 7.36861 0.540971 0.986169 8.36607 -0.0 0.0 -0.0 6.80546 -13.5869 12.7971 -4.09999 -4.60378 74.3136 0.87266 -23.3781 0.180549 -34.2253 -2.359 3.61583 -0.450266 -0.893179 -3.39216 -0.0 0.0 -0.0 1.80727 7.80327 -2.76913 19.9662 2.55071 -68.5795 0.797423 21.5549 -0.151794 10.4142 -0.248899 1.30521 0.275963 -19.394 -9.51214 0.0 0.0 0.0 -16.3533 -11.7524 -3.13045 -41.1982 -0.54475 6.16519 8.99537 18.6068 -1.30547 -5.15358 0.0 0.0 -0.0 0.0 -0.0 3.94413 1.94801 -13.0384 -12.5801 -0.310246 -1.90181 15.9089 3.11201 2.24933 -25.5029 0.0 0.0 0.0 0.0 0.0 
